<?xml version="1.0" encoding="utf-8" ?>
<svg baseProfile="full" height="800" version="1.1" width="1600" xmlns="http://www.w3.org/2000/svg" xmlns:ev="http://www.w3.org/2001/xml-events" xmlns:xlink="http://www.w3.org/1999/xlink"><defs><marker id="id5" markerHeight="10" markerWidth="10" orient="auto" refX="0" refY="3"><path d="M0,0 L0,6 L9,3 z" fill="black" /></marker></defs><rect fill="white" height="800" stroke="none" width="1600" x="0" y="0" /><line stroke="black" stroke-width="4" x1="300.0" x2="300.0" y1="400.0" y2="400.0" /><line stroke="black" stroke-width="4" x1="300.0" x2="333.333333333" y1="400.0" y2="522.020992923" /><line stroke="black" stroke-width="4" x1="333.333333333" x2="366.666666667" y1="522.020992923" y2="622.943447643" /><line stroke="black" stroke-width="4" x1="366.666666667" x2="400.0" y1="622.943447643" y2="685.316954889" /><line stroke="black" stroke-width="4" x1="400.0" x2="433.333333333" y1="685.316954889" y2="698.35656861" /><line stroke="black" stroke-width="4" x1="433.333333333" x2="466.666666667" y1="698.35656861" y2="659.807621135" /><line stroke="black" stroke-width="4" x1="466.666666667" x2="500.0" y1="659.807621135" y2="576.335575688" /><line stroke="black" stroke-width="4" x1="500.0" x2="533.333333333" y1="576.335575688" y2="462.373507245" /><line stroke="black" stroke-width="4" x1="533.333333333" x2="566.666666667" y1="462.373507245" y2="337.626492755" /><line stroke="black" stroke-width="4" x1="566.666666667" x2="600.0" y1="337.626492755" y2="223.664424312" /><line stroke="black" stroke-width="4" x1="600.0" x2="633.333333333" y1="223.664424312" y2="140.192378865" /><line stroke="black" stroke-width="4" x1="633.333333333" x2="666.666666667" y1="140.192378865" y2="101.64343139" /><line stroke="black" stroke-width="4" x1="666.666666667" x2="700.0" y1="101.64343139" y2="114.683045111" /><line stroke="black" stroke-width="4" x1="700.0" x2="733.333333333" y1="114.683045111" y2="177.056552357" /><line stroke="black" stroke-width="4" x1="733.333333333" x2="766.666666667" y1="177.056552357" y2="277.979007077" /><line stroke="black" stroke-width="4" x1="766.666666667" x2="800.0" y1="277.979007077" y2="400.0" /><line stroke="black" stroke-width="4" x1="800.0" x2="833.333333333" y1="400.0" y2="522.020992923" /><line stroke="black" stroke-width="4" x1="833.333333333" x2="866.666666667" y1="522.020992923" y2="622.943447643" /><line stroke="black" stroke-width="4" x1="866.666666667" x2="900.0" y1="622.943447643" y2="685.316954889" /><line stroke="black" stroke-width="4" x1="900.0" x2="933.333333333" y1="685.316954889" y2="698.35656861" /><line stroke="black" stroke-width="4" x1="933.333333333" x2="966.666666667" y1="698.35656861" y2="659.807621135" /><line stroke="black" stroke-width="4" x1="966.666666667" x2="1000.0" y1="659.807621135" y2="576.335575688" /><line stroke="black" stroke-width="4" x1="1000.0" x2="1033.33333333" y1="576.335575688" y2="462.373507245" /><line stroke="black" stroke-width="4" x1="1033.33333333" x2="1066.66666667" y1="462.373507245" y2="337.626492755" /><line stroke="black" stroke-width="4" x1="1066.66666667" x2="1100.0" y1="337.626492755" y2="223.664424312" /><line stroke="black" stroke-width="4" x1="1100.0" x2="1133.33333333" y1="223.664424312" y2="140.192378865" /><line stroke="black" stroke-width="4" x1="1133.33333333" x2="1166.66666667" y1="140.192378865" y2="101.64343139" /><line stroke="black" stroke-width="4" x1="1166.66666667" x2="1200.0" y1="101.64343139" y2="114.683045111" /><line stroke="black" stroke-width="4" x1="1200.0" x2="1233.33333333" y1="114.683045111" y2="177.056552357" /><line marker-end="url(#id5)" stroke="black" stroke-width="4" x1="1233.33333333" x2="1266.66666667" y1="177.056552357" y2="277.979007077" /><rect fill="white" height="640" stroke="black" width="180" x="20" y="100" /><text font-family="sans-serif" font-size="24" text-anchor="middle" x="110.0" y="144">Temp. (C)</text><ellipse cx="60" cy="200" fill="rgb(255,0,0)" rx="30.0" ry="10.0" /><text font-family="sans-serif" font-size="24" text-anchor="start" x="100" y="212.0">   19.858</text><ellipse cx="60" cy="280" fill="rgb(255,0,127)" rx="26.6666666667" ry="13.3333333333" /><text font-family="sans-serif" font-size="24" text-anchor="start" x="100" y="292.0">   19.016</text><ellipse cx="60" cy="360" fill="rgb(255,0,255)" rx="23.3333333333" ry="16.6666666667" /><text font-family="sans-serif" font-size="24" text-anchor="start" x="100" y="372.0">   18.174</text><ellipse cx="60" cy="440" fill="rgb(127,0,255)" rx="20.0" ry="20.0" /><text font-family="sans-serif" font-size="24" text-anchor="start" x="100" y="452.0">   17.332</text><ellipse cx="60" cy="520" fill="rgb(0,0,255)" rx="16.6666666667" ry="23.3333333333" /><text font-family="sans-serif" font-size="24" text-anchor="start" x="100" y="532.0">   16.490</text><ellipse cx="60" cy="600" fill="rgb(0,127,255)" rx="13.3333333333" ry="26.6666666667" /><text font-family="sans-serif" font-size="24" text-anchor="start" x="100" y="612.0">   15.648</text><ellipse cx="60" cy="680" fill="rgb(0,255,255)" rx="10.0" ry="30.0" /><text font-family="sans-serif" font-size="24" text-anchor="start" x="100" y="692.0">   14.807</text><ellipse cx="300.0" cy="400.0" fill="rgb(0,255,255)" rx="10.0" ry="30.0" /><rect fill="white" height="640" stroke="black" width="180" x="20" y="100" /><text font-family="sans-serif" font-size="24" text-anchor="middle" x="110.0" y="144">Temp. (C)</text><ellipse cx="60" cy="200" fill="rgb(255,0,0)" rx="30.0" ry="10.0" /><text font-family="sans-serif" font-size="24" text-anchor="start" x="100" y="212.0">   19.858</text><ellipse cx="60" cy="280" fill="rgb(255,0,127)" rx="26.6666666667" ry="13.3333333333" /><text font-family="sans-serif" font-size="24" text-anchor="start" x="100" y="292.0">   19.016</text><ellipse cx="60" cy="360" fill="rgb(255,0,255)" rx="23.3333333333" ry="16.6666666667" /><text font-family="sans-serif" font-size="24" text-anchor="start" x="100" y="372.0">   18.174</text><ellipse cx="60" cy="440" fill="rgb(127,0,255)" rx="20.0" ry="20.0" /><text font-family="sans-serif" font-size="24" text-anchor="start" x="100" y="452.0">   17.332</text><ellipse cx="60" cy="520" fill="rgb(0,0,255)" rx="16.6666666667" ry="23.3333333333" /><text font-family="sans-serif" font-size="24" text-anchor="start" x="100" y="532.0">   16.490</text><ellipse cx="60" cy="600" fill="rgb(0,127,255)" rx="13.3333333333" ry="26.6666666667" /><text font-family="sans-serif" font-size="24" text-anchor="start" x="100" y="612.0">   15.648</text><ellipse cx="60" cy="680" fill="rgb(0,255,255)" rx="10.0" ry="30.0" /><text font-family="sans-serif" font-size="24" text-anchor="start" x="100" y="692.0">   14.807</text><ellipse cx="333.333333333" cy="522.020992923" fill="rgb(0,215,255)" rx="11.0330170991" ry="28.9669829009" /><rect fill="white" height="640" stroke="black" width="180" x="20" y="100" /><text font-family="sans-serif" font-size="24" text-anchor="middle" x="110.0" y="144">Temp. (C)</text><ellipse cx="60" cy="200" fill="rgb(255,0,0)" rx="30.0" ry="10.0" /><text font-family="sans-serif" font-size="24" text-anchor="start" x="100" y="212.0">   19.858</text><ellipse cx="60" cy="280" fill="rgb(255,0,127)" rx="26.6666666667" ry="13.3333333333" /><text font-family="sans-serif" font-size="24" text-anchor="start" x="100" y="292.0">   19.016</text><ellipse cx="60" cy="360" fill="rgb(255,0,255)" rx="23.3333333333" ry="16.6666666667" /><text font-family="sans-serif" font-size="24" text-anchor="start" x="100" y="372.0">   18.174</text><ellipse cx="60" cy="440" fill="rgb(127,0,255)" rx="20.0" ry="20.0" /><text font-family="sans-serif" font-size="24" text-anchor="start" x="100" y="452.0">   17.332</text><ellipse cx="60" cy="520" fill="rgb(0,0,255)" rx="16.6666666667" ry="23.3333333333" /><text font-family="sans-serif" font-size="24" text-anchor="start" x="100" y="532.0">   16.490</text><ellipse cx="60" cy="600" fill="rgb(0,127,255)" rx="13.3333333333" ry="26.6666666667" /><text font-family="sans-serif" font-size="24" text-anchor="start" x="100" y="612.0">   15.648</text><ellipse cx="60" cy="680" fill="rgb(0,255,255)" rx="10.0" ry="30.0" /><text font-family="sans-serif" font-size="24" text-anchor="start" x="100" y="692.0">   14.807</text><ellipse cx="366.666666667" cy="622.943447643" fill="rgb(0,198,255)" rx="11.4722343006" ry="28.5277656994" /><rect fill="white" height="640" stroke="black" width="180" x="20" y="100" /><text font-family="sans-serif" font-size="24" text-anchor="middle" x="110.0" y="144">Temp. (C)</text><ellipse cx="60" cy="200" fill="rgb(255,0,0)" rx="30.0" ry="10.0" /><text font-family="sans-serif" font-size="24" text-anchor="start" x="100" y="212.0">   19.858</text><ellipse cx="60" cy="280" fill="rgb(255,0,127)" rx="26.6666666667" ry="13.3333333333" /><text font-family="sans-serif" font-size="24" text-anchor="start" x="100" y="292.0">   19.016</text><ellipse cx="60" cy="360" fill="rgb(255,0,255)" rx="23.3333333333" ry="16.6666666667" /><text font-family="sans-serif" font-size="24" text-anchor="start" x="100" y="372.0">   18.174</text><ellipse cx="60" cy="440" fill="rgb(127,0,255)" rx="20.0" ry="20.0" /><text font-family="sans-serif" font-size="24" text-anchor="start" x="100" y="452.0">   17.332</text><ellipse cx="60" cy="520" fill="rgb(0,0,255)" rx="16.6666666667" ry="23.3333333333" /><text font-family="sans-serif" font-size="24" text-anchor="start" x="100" y="532.0">   16.490</text><ellipse cx="60" cy="600" fill="rgb(0,127,255)" rx="13.3333333333" ry="26.6666666667" /><text font-family="sans-serif" font-size="24" text-anchor="start" x="100" y="612.0">   15.648</text><ellipse cx="60" cy="680" fill="rgb(0,255,255)" rx="10.0" ry="30.0" /><text font-family="sans-serif" font-size="24" text-anchor="start" x="100" y="692.0">   14.807</text><ellipse cx="400.0" cy="685.316954889" fill="rgb(0,125,255)" rx="13.3800359624" ry="26.6199640376" /><rect fill="white" height="640" stroke="black" width="180" x="20" y="100" /><text font-family="sans-serif" font-size="24" text-anchor="middle" x="110.0" y="144">Temp. (C)</text><ellipse cx="60" cy="200" fill="rgb(255,0,0)" rx="30.0" ry="10.0" /><text font-family="sans-serif" font-size="24" text-anchor="start" x="100" y="212.0">   19.858</text><ellipse cx="60" cy="280" fill="rgb(255,0,127)" rx="26.6666666667" ry="13.3333333333" /><text font-family="sans-serif" font-size="24" text-anchor="start" x="100" y="292.0">   19.016</text><ellipse cx="60" cy="360" fill="rgb(255,0,255)" rx="23.3333333333" ry="16.6666666667" /><text font-family="sans-serif" font-size="24" text-anchor="start" x="100" y="372.0">   18.174</text><ellipse cx="60" cy="440" fill="rgb(127,0,255)" rx="20.0" ry="20.0" /><text font-family="sans-serif" font-size="24" text-anchor="start" x="100" y="452.0">   17.332</text><ellipse cx="60" cy="520" fill="rgb(0,0,255)" rx="16.6666666667" ry="23.3333333333" /><text font-family="sans-serif" font-size="24" text-anchor="start" x="100" y="532.0">   16.490</text><ellipse cx="60" cy="600" fill="rgb(0,127,255)" rx="13.3333333333" ry="26.6666666667" /><text font-family="sans-serif" font-size="24" text-anchor="start" x="100" y="612.0">   15.648</text><ellipse cx="60" cy="680" fill="rgb(0,255,255)" rx="10.0" ry="30.0" /><text font-family="sans-serif" font-size="24" text-anchor="start" x="100" y="692.0">   14.807</text><ellipse cx="433.333333333" cy="698.35656861" fill="rgb(0,129,255)" rx="13.2818534894" ry="26.7181465106" /><rect fill="white" height="640" stroke="black" width="180" x="20" y="100" /><text font-family="sans-serif" font-size="24" text-anchor="middle" x="110.0" y="144">Temp. (C)</text><ellipse cx="60" cy="200" fill="rgb(255,0,0)" rx="30.0" ry="10.0" /><text font-family="sans-serif" font-size="24" text-anchor="start" x="100" y="212.0">   19.858</text><ellipse cx="60" cy="280" fill="rgb(255,0,127)" rx="26.6666666667" ry="13.3333333333" /><text font-family="sans-serif" font-size="24" text-anchor="start" x="100" y="292.0">   19.016</text><ellipse cx="60" cy="360" fill="rgb(255,0,255)" rx="23.3333333333" ry="16.6666666667" /><text font-family="sans-serif" font-size="24" text-anchor="start" x="100" y="372.0">   18.174</text><ellipse cx="60" cy="440" fill="rgb(127,0,255)" rx="20.0" ry="20.0" /><text font-family="sans-serif" font-size="24" text-anchor="start" x="100" y="452.0">   17.332</text><ellipse cx="60" cy="520" fill="rgb(0,0,255)" rx="16.6666666667" ry="23.3333333333" /><text font-family="sans-serif" font-size="24" text-anchor="start" x="100" y="532.0">   16.490</text><ellipse cx="60" cy="600" fill="rgb(0,127,255)" rx="13.3333333333" ry="26.6666666667" /><text font-family="sans-serif" font-size="24" text-anchor="start" x="100" y="612.0">   15.648</text><ellipse cx="60" cy="680" fill="rgb(0,255,255)" rx="10.0" ry="30.0" /><text font-family="sans-serif" font-size="24" text-anchor="start" x="100" y="692.0">   14.807</text><ellipse cx="466.666666667" cy="659.807621135" fill="rgb(0,131,255)" rx="13.2203619364" ry="26.7796380636" /><rect fill="white" height="640" stroke="black" width="180" x="20" y="100" /><text font-family="sans-serif" font-size="24" text-anchor="middle" x="110.0" y="144">Temp. (C)</text><ellipse cx="60" cy="200" fill="rgb(255,0,0)" rx="30.0" ry="10.0" /><text font-family="sans-serif" font-size="24" text-anchor="start" x="100" y="212.0">   19.858</text><ellipse cx="60" cy="280" fill="rgb(255,0,127)" rx="26.6666666667" ry="13.3333333333" /><text font-family="sans-serif" font-size="24" text-anchor="start" x="100" y="292.0">   19.016</text><ellipse cx="60" cy="360" fill="rgb(255,0,255)" rx="23.3333333333" ry="16.6666666667" /><text font-family="sans-serif" font-size="24" text-anchor="start" x="100" y="372.0">   18.174</text><ellipse cx="60" cy="440" fill="rgb(127,0,255)" rx="20.0" ry="20.0" /><text font-family="sans-serif" font-size="24" text-anchor="start" x="100" y="452.0">   17.332</text><ellipse cx="60" cy="520" fill="rgb(0,0,255)" rx="16.6666666667" ry="23.3333333333" /><text font-family="sans-serif" font-size="24" text-anchor="start" x="100" y="532.0">   16.490</text><ellipse cx="60" cy="600" fill="rgb(0,127,255)" rx="13.3333333333" ry="26.6666666667" /><text font-family="sans-serif" font-size="24" text-anchor="start" x="100" y="612.0">   15.648</text><ellipse cx="60" cy="680" fill="rgb(0,255,255)" rx="10.0" ry="30.0" /><text font-family="sans-serif" font-size="24" text-anchor="start" x="100" y="692.0">   14.807</text><ellipse cx="500.0" cy="576.335575688" fill="rgb(0,84,255)" rx="14.4585936923" ry="25.5414063077" /><rect fill="white" height="640" stroke="black" width="180" x="20" y="100" /><text font-family="sans-serif" font-size="24" text-anchor="middle" x="110.0" y="144">Temp. (C)</text><ellipse cx="60" cy="200" fill="rgb(255,0,0)" rx="30.0" ry="10.0" /><text font-family="sans-serif" font-size="24" text-anchor="start" x="100" y="212.0">   19.858</text><ellipse cx="60" cy="280" fill="rgb(255,0,127)" rx="26.6666666667" ry="13.3333333333" /><text font-family="sans-serif" font-size="24" text-anchor="start" x="100" y="292.0">   19.016</text><ellipse cx="60" cy="360" fill="rgb(255,0,255)" rx="23.3333333333" ry="16.6666666667" /><text font-family="sans-serif" font-size="24" text-anchor="start" x="100" y="372.0">   18.174</text><ellipse cx="60" cy="440" fill="rgb(127,0,255)" rx="20.0" ry="20.0" /><text font-family="sans-serif" font-size="24" text-anchor="start" x="100" y="452.0">   17.332</text><ellipse cx="60" cy="520" fill="rgb(0,0,255)" rx="16.6666666667" ry="23.3333333333" /><text font-family="sans-serif" font-size="24" text-anchor="start" x="100" y="532.0">   16.490</text><ellipse cx="60" cy="600" fill="rgb(0,127,255)" rx="13.3333333333" ry="26.6666666667" /><text font-family="sans-serif" font-size="24" text-anchor="start" x="100" y="612.0">   15.648</text><ellipse cx="60" cy="680" fill="rgb(0,255,255)" rx="10.0" ry="30.0" /><text font-family="sans-serif" font-size="24" text-anchor="start" x="100" y="692.0">   14.807</text><ellipse cx="533.333333333" cy="462.373507245" fill="rgb(0,42,255)" rx="15.5574118993" ry="24.4425881007" /><rect fill="white" height="640" stroke="black" width="180" x="20" y="100" /><text font-family="sans-serif" font-size="24" text-anchor="middle" x="110.0" y="144">Temp. (C)</text><ellipse cx="60" cy="200" fill="rgb(255,0,0)" rx="30.0" ry="10.0" /><text font-family="sans-serif" font-size="24" text-anchor="start" x="100" y="212.0">   19.858</text><ellipse cx="60" cy="280" fill="rgb(255,0,127)" rx="26.6666666667" ry="13.3333333333" /><text font-family="sans-serif" font-size="24" text-anchor="start" x="100" y="292.0">   19.016</text><ellipse cx="60" cy="360" fill="rgb(255,0,255)" rx="23.3333333333" ry="16.6666666667" /><text font-family="sans-serif" font-size="24" text-anchor="start" x="100" y="372.0">   18.174</text><ellipse cx="60" cy="440" fill="rgb(127,0,255)" rx="20.0" ry="20.0" /><text font-family="sans-serif" font-size="24" text-anchor="start" x="100" y="452.0">   17.332</text><ellipse cx="60" cy="520" fill="rgb(0,0,255)" rx="16.6666666667" ry="23.3333333333" /><text font-family="sans-serif" font-size="24" text-anchor="start" x="100" y="532.0">   16.490</text><ellipse cx="60" cy="600" fill="rgb(0,127,255)" rx="13.3333333333" ry="26.6666666667" /><text font-family="sans-serif" font-size="24" text-anchor="start" x="100" y="612.0">   15.648</text><ellipse cx="60" cy="680" fill="rgb(0,255,255)" rx="10.0" ry="30.0" /><text font-family="sans-serif" font-size="24" text-anchor="start" x="100" y="692.0">   14.807</text><ellipse cx="566.666666667" cy="337.626492755" fill="rgb(0,46,255)" rx="15.4603624372" ry="24.5396375628" /><rect fill="white" height="640" stroke="black" width="180" x="20" y="100" /><text font-family="sans-serif" font-size="24" text-anchor="middle" x="110.0" y="144">Temp. (C)</text><ellipse cx="60" cy="200" fill="rgb(255,0,0)" rx="30.0" ry="10.0" /><text font-family="sans-serif" font-size="24" text-anchor="start" x="100" y="212.0">   19.858</text><ellipse cx="60" cy="280" fill="rgb(255,0,127)" rx="26.6666666667" ry="13.3333333333" /><text font-family="sans-serif" font-size="24" text-anchor="start" x="100" y="292.0">   19.016</text><ellipse cx="60" cy="360" fill="rgb(255,0,255)" rx="23.3333333333" ry="16.6666666667" /><text font-family="sans-serif" font-size="24" text-anchor="start" x="100" y="372.0">   18.174</text><ellipse cx="60" cy="440" fill="rgb(127,0,255)" rx="20.0" ry="20.0" /><text font-family="sans-serif" font-size="24" text-anchor="start" x="100" y="452.0">   17.332</text><ellipse cx="60" cy="520" fill="rgb(0,0,255)" rx="16.6666666667" ry="23.3333333333" /><text font-family="sans-serif" font-size="24" text-anchor="start" x="100" y="532.0">   16.490</text><ellipse cx="60" cy="600" fill="rgb(0,127,255)" rx="13.3333333333" ry="26.6666666667" /><text font-family="sans-serif" font-size="24" text-anchor="start" x="100" y="612.0">   15.648</text><ellipse cx="60" cy="680" fill="rgb(0,255,255)" rx="10.0" ry="30.0" /><text font-family="sans-serif" font-size="24" text-anchor="start" x="100" y="692.0">   14.807</text><ellipse cx="600.0" cy="223.664424312" fill="rgb(15,0,255)" rx="17.0704831996" ry="22.9295168004" /><rect fill="white" height="640" stroke="black" width="180" x="20" y="100" /><text font-family="sans-serif" font-size="24" text-anchor="middle" x="110.0" y="144">Temp. (C)</text><ellipse cx="60" cy="200" fill="rgb(255,0,0)" rx="30.0" ry="10.0" /><text font-family="sans-serif" font-size="24" text-anchor="start" x="100" y="212.0">   19.858</text><ellipse cx="60" cy="280" fill="rgb(255,0,127)" rx="26.6666666667" ry="13.3333333333" /><text font-family="sans-serif" font-size="24" text-anchor="start" x="100" y="292.0">   19.016</text><ellipse cx="60" cy="360" fill="rgb(255,0,255)" rx="23.3333333333" ry="16.6666666667" /><text font-family="sans-serif" font-size="24" text-anchor="start" x="100" y="372.0">   18.174</text><ellipse cx="60" cy="440" fill="rgb(127,0,255)" rx="20.0" ry="20.0" /><text font-family="sans-serif" font-size="24" text-anchor="start" x="100" y="452.0">   17.332</text><ellipse cx="60" cy="520" fill="rgb(0,0,255)" rx="16.6666666667" ry="23.3333333333" /><text font-family="sans-serif" font-size="24" text-anchor="start" x="100" y="532.0">   16.490</text><ellipse cx="60" cy="600" fill="rgb(0,127,255)" rx="13.3333333333" ry="26.6666666667" /><text font-family="sans-serif" font-size="24" text-anchor="start" x="100" y="612.0">   15.648</text><ellipse cx="60" cy="680" fill="rgb(0,255,255)" rx="10.0" ry="30.0" /><text font-family="sans-serif" font-size="24" text-anchor="start" x="100" y="692.0">   14.807</text><ellipse cx="633.333333333" cy="140.192378865" fill="rgb(55,0,255)" rx="18.1277283865" ry="21.8722716135" /><rect fill="white" height="640" stroke="black" width="180" x="20" y="100" /><text font-family="sans-serif" font-size="24" text-anchor="middle" x="110.0" y="144">Temp. (C)</text><ellipse cx="60" cy="200" fill="rgb(255,0,0)" rx="30.0" ry="10.0" /><text font-family="sans-serif" font-size="24" text-anchor="start" x="100" y="212.0">   19.858</text><ellipse cx="60" cy="280" fill="rgb(255,0,127)" rx="26.6666666667" ry="13.3333333333" /><text font-family="sans-serif" font-size="24" text-anchor="start" x="100" y="292.0">   19.016</text><ellipse cx="60" cy="360" fill="rgb(255,0,255)" rx="23.3333333333" ry="16.6666666667" /><text font-family="sans-serif" font-size="24" text-anchor="start" x="100" y="372.0">   18.174</text><ellipse cx="60" cy="440" fill="rgb(127,0,255)" rx="20.0" ry="20.0" /><text font-family="sans-serif" font-size="24" text-anchor="start" x="100" y="452.0">   17.332</text><ellipse cx="60" cy="520" fill="rgb(0,0,255)" rx="16.6666666667" ry="23.3333333333" /><text font-family="sans-serif" font-size="24" text-anchor="start" x="100" y="532.0">   16.490</text><ellipse cx="60" cy="600" fill="rgb(0,127,255)" rx="13.3333333333" ry="26.6666666667" /><text font-family="sans-serif" font-size="24" text-anchor="start" x="100" y="612.0">   15.648</text><ellipse cx="60" cy="680" fill="rgb(0,255,255)" rx="10.0" ry="30.0" /><text font-family="sans-serif" font-size="24" text-anchor="start" x="100" y="692.0">   14.807</text><ellipse cx="666.666666667" cy="101.64343139" fill="rgb(55,0,255)" rx="18.1127956022" ry="21.8872043978" /><rect fill="white" height="640" stroke="black" width="180" x="20" y="100" /><text font-family="sans-serif" font-size="24" text-anchor="middle" x="110.0" y="144">Temp. (C)</text><ellipse cx="60" cy="200" fill="rgb(255,0,0)" rx="30.0" ry="10.0" /><text font-family="sans-serif" font-size="24" text-anchor="start" x="100" y="212.0">   19.858</text><ellipse cx="60" cy="280" fill="rgb(255,0,127)" rx="26.6666666667" ry="13.3333333333" /><text font-family="sans-serif" font-size="24" text-anchor="start" x="100" y="292.0">   19.016</text><ellipse cx="60" cy="360" fill="rgb(255,0,255)" rx="23.3333333333" ry="16.6666666667" /><text font-family="sans-serif" font-size="24" text-anchor="start" x="100" y="372.0">   18.174</text><ellipse cx="60" cy="440" fill="rgb(127,0,255)" rx="20.0" ry="20.0" /><text font-family="sans-serif" font-size="24" text-anchor="start" x="100" y="452.0">   17.332</text><ellipse cx="60" cy="520" fill="rgb(0,0,255)" rx="16.6666666667" ry="23.3333333333" /><text font-family="sans-serif" font-size="24" text-anchor="start" x="100" y="532.0">   16.490</text><ellipse cx="60" cy="600" fill="rgb(0,127,255)" rx="13.3333333333" ry="26.6666666667" /><text font-family="sans-serif" font-size="24" text-anchor="start" x="100" y="612.0">   15.648</text><ellipse cx="60" cy="680" fill="rgb(0,255,255)" rx="10.0" ry="30.0" /><text font-family="sans-serif" font-size="24" text-anchor="start" x="100" y="692.0">   14.807</text><ellipse cx="700.0" cy="114.683045111" fill="rgb(60,0,255)" rx="18.2550135003" ry="21.7449864997" /><rect fill="white" height="640" stroke="black" width="180" x="20" y="100" /><text font-family="sans-serif" font-size="24" text-anchor="middle" x="110.0" y="144">Temp. (C)</text><ellipse cx="60" cy="200" fill="rgb(255,0,0)" rx="30.0" ry="10.0" /><text font-family="sans-serif" font-size="24" text-anchor="start" x="100" y="212.0">   19.858</text><ellipse cx="60" cy="280" fill="rgb(255,0,127)" rx="26.6666666667" ry="13.3333333333" /><text font-family="sans-serif" font-size="24" text-anchor="start" x="100" y="292.0">   19.016</text><ellipse cx="60" cy="360" fill="rgb(255,0,255)" rx="23.3333333333" ry="16.6666666667" /><text font-family="sans-serif" font-size="24" text-anchor="start" x="100" y="372.0">   18.174</text><ellipse cx="60" cy="440" fill="rgb(127,0,255)" rx="20.0" ry="20.0" /><text font-family="sans-serif" font-size="24" text-anchor="start" x="100" y="452.0">   17.332</text><ellipse cx="60" cy="520" fill="rgb(0,0,255)" rx="16.6666666667" ry="23.3333333333" /><text font-family="sans-serif" font-size="24" text-anchor="start" x="100" y="532.0">   16.490</text><ellipse cx="60" cy="600" fill="rgb(0,127,255)" rx="13.3333333333" ry="26.6666666667" /><text font-family="sans-serif" font-size="24" text-anchor="start" x="100" y="612.0">   15.648</text><ellipse cx="60" cy="680" fill="rgb(0,255,255)" rx="10.0" ry="30.0" /><text font-family="sans-serif" font-size="24" text-anchor="start" x="100" y="692.0">   14.807</text><ellipse cx="733.333333333" cy="177.056552357" fill="rgb(70,0,255)" rx="18.5120520832" ry="21.4879479168" /><rect fill="white" height="640" stroke="black" width="180" x="20" y="100" /><text font-family="sans-serif" font-size="24" text-anchor="middle" x="110.0" y="144">Temp. (C)</text><ellipse cx="60" cy="200" fill="rgb(255,0,0)" rx="30.0" ry="10.0" /><text font-family="sans-serif" font-size="24" text-anchor="start" x="100" y="212.0">   19.858</text><ellipse cx="60" cy="280" fill="rgb(255,0,127)" rx="26.6666666667" ry="13.3333333333" /><text font-family="sans-serif" font-size="24" text-anchor="start" x="100" y="292.0">   19.016</text><ellipse cx="60" cy="360" fill="rgb(255,0,255)" rx="23.3333333333" ry="16.6666666667" /><text font-family="sans-serif" font-size="24" text-anchor="start" x="100" y="372.0">   18.174</text><ellipse cx="60" cy="440" fill="rgb(127,0,255)" rx="20.0" ry="20.0" /><text font-family="sans-serif" font-size="24" text-anchor="start" x="100" y="452.0">   17.332</text><ellipse cx="60" cy="520" fill="rgb(0,0,255)" rx="16.6666666667" ry="23.3333333333" /><text font-family="sans-serif" font-size="24" text-anchor="start" x="100" y="532.0">   16.490</text><ellipse cx="60" cy="600" fill="rgb(0,127,255)" rx="13.3333333333" ry="26.6666666667" /><text font-family="sans-serif" font-size="24" text-anchor="start" x="100" y="612.0">   15.648</text><ellipse cx="60" cy="680" fill="rgb(0,255,255)" rx="10.0" ry="30.0" /><text font-family="sans-serif" font-size="24" text-anchor="start" x="100" y="692.0">   14.807</text><ellipse cx="766.666666667" cy="277.979007077" fill="rgb(131,0,255)" rx="20.1007184754" ry="19.8992815246" /><rect fill="white" height="640" stroke="black" width="180" x="20" y="100" /><text font-family="sans-serif" font-size="24" text-anchor="middle" x="110.0" y="144">Temp. (C)</text><ellipse cx="60" cy="200" fill="rgb(255,0,0)" rx="30.0" ry="10.0" /><text font-family="sans-serif" font-size="24" text-anchor="start" x="100" y="212.0">   19.858</text><ellipse cx="60" cy="280" fill="rgb(255,0,127)" rx="26.6666666667" ry="13.3333333333" /><text font-family="sans-serif" font-size="24" text-anchor="start" x="100" y="292.0">   19.016</text><ellipse cx="60" cy="360" fill="rgb(255,0,255)" rx="23.3333333333" ry="16.6666666667" /><text font-family="sans-serif" font-size="24" text-anchor="start" x="100" y="372.0">   18.174</text><ellipse cx="60" cy="440" fill="rgb(127,0,255)" rx="20.0" ry="20.0" /><text font-family="sans-serif" font-size="24" text-anchor="start" x="100" y="452.0">   17.332</text><ellipse cx="60" cy="520" fill="rgb(0,0,255)" rx="16.6666666667" ry="23.3333333333" /><text font-family="sans-serif" font-size="24" text-anchor="start" x="100" y="532.0">   16.490</text><ellipse cx="60" cy="600" fill="rgb(0,127,255)" rx="13.3333333333" ry="26.6666666667" /><text font-family="sans-serif" font-size="24" text-anchor="start" x="100" y="612.0">   15.648</text><ellipse cx="60" cy="680" fill="rgb(0,255,255)" rx="10.0" ry="30.0" /><text font-family="sans-serif" font-size="24" text-anchor="start" x="100" y="692.0">   14.807</text><ellipse cx="800.0" cy="400.0" fill="rgb(151,0,255)" rx="20.615760396" ry="19.384239604" /><rect fill="white" height="640" stroke="black" width="180" x="20" y="100" /><text font-family="sans-serif" font-size="24" text-anchor="middle" x="110.0" y="144">Temp. (C)</text><ellipse cx="60" cy="200" fill="rgb(255,0,0)" rx="30.0" ry="10.0" /><text font-family="sans-serif" font-size="24" text-anchor="start" x="100" y="212.0">   19.858</text><ellipse cx="60" cy="280" fill="rgb(255,0,127)" rx="26.6666666667" ry="13.3333333333" /><text font-family="sans-serif" font-size="24" text-anchor="start" x="100" y="292.0">   19.016</text><ellipse cx="60" cy="360" fill="rgb(255,0,255)" rx="23.3333333333" ry="16.6666666667" /><text font-family="sans-serif" font-size="24" text-anchor="start" x="100" y="372.0">   18.174</text><ellipse cx="60" cy="440" fill="rgb(127,0,255)" rx="20.0" ry="20.0" /><text font-family="sans-serif" font-size="24" text-anchor="start" x="100" y="452.0">   17.332</text><ellipse cx="60" cy="520" fill="rgb(0,0,255)" rx="16.6666666667" ry="23.3333333333" /><text font-family="sans-serif" font-size="24" text-anchor="start" x="100" y="532.0">   16.490</text><ellipse cx="60" cy="600" fill="rgb(0,127,255)" rx="13.3333333333" ry="26.6666666667" /><text font-family="sans-serif" font-size="24" text-anchor="start" x="100" y="612.0">   15.648</text><ellipse cx="60" cy="680" fill="rgb(0,255,255)" rx="10.0" ry="30.0" /><text font-family="sans-serif" font-size="24" text-anchor="start" x="100" y="692.0">   14.807</text><ellipse cx="833.333333333" cy="522.020992923" fill="rgb(142,0,255)" rx="20.3913083703" ry="19.6086916297" /><rect fill="white" height="640" stroke="black" width="180" x="20" y="100" /><text font-family="sans-serif" font-size="24" text-anchor="middle" x="110.0" y="144">Temp. (C)</text><ellipse cx="60" cy="200" fill="rgb(255,0,0)" rx="30.0" ry="10.0" /><text font-family="sans-serif" font-size="24" text-anchor="start" x="100" y="212.0">   19.858</text><ellipse cx="60" cy="280" fill="rgb(255,0,127)" rx="26.6666666667" ry="13.3333333333" /><text font-family="sans-serif" font-size="24" text-anchor="start" x="100" y="292.0">   19.016</text><ellipse cx="60" cy="360" fill="rgb(255,0,255)" rx="23.3333333333" ry="16.6666666667" /><text font-family="sans-serif" font-size="24" text-anchor="start" x="100" y="372.0">   18.174</text><ellipse cx="60" cy="440" fill="rgb(127,0,255)" rx="20.0" ry="20.0" /><text font-family="sans-serif" font-size="24" text-anchor="start" x="100" y="452.0">   17.332</text><ellipse cx="60" cy="520" fill="rgb(0,0,255)" rx="16.6666666667" ry="23.3333333333" /><text font-family="sans-serif" font-size="24" text-anchor="start" x="100" y="532.0">   16.490</text><ellipse cx="60" cy="600" fill="rgb(0,127,255)" rx="13.3333333333" ry="26.6666666667" /><text font-family="sans-serif" font-size="24" text-anchor="start" x="100" y="612.0">   15.648</text><ellipse cx="60" cy="680" fill="rgb(0,255,255)" rx="10.0" ry="30.0" /><text font-family="sans-serif" font-size="24" text-anchor="start" x="100" y="692.0">   14.807</text><ellipse cx="866.666666667" cy="622.943447643" fill="rgb(220,0,255)" rx="22.4273275228" ry="17.5726724772" /><rect fill="white" height="640" stroke="black" width="180" x="20" y="100" /><text font-family="sans-serif" font-size="24" text-anchor="middle" x="110.0" y="144">Temp. (C)</text><ellipse cx="60" cy="200" fill="rgb(255,0,0)" rx="30.0" ry="10.0" /><text font-family="sans-serif" font-size="24" text-anchor="start" x="100" y="212.0">   19.858</text><ellipse cx="60" cy="280" fill="rgb(255,0,127)" rx="26.6666666667" ry="13.3333333333" /><text font-family="sans-serif" font-size="24" text-anchor="start" x="100" y="292.0">   19.016</text><ellipse cx="60" cy="360" fill="rgb(255,0,255)" rx="23.3333333333" ry="16.6666666667" /><text font-family="sans-serif" font-size="24" text-anchor="start" x="100" y="372.0">   18.174</text><ellipse cx="60" cy="440" fill="rgb(127,0,255)" rx="20.0" ry="20.0" /><text font-family="sans-serif" font-size="24" text-anchor="start" x="100" y="452.0">   17.332</text><ellipse cx="60" cy="520" fill="rgb(0,0,255)" rx="16.6666666667" ry="23.3333333333" /><text font-family="sans-serif" font-size="24" text-anchor="start" x="100" y="532.0">   16.490</text><ellipse cx="60" cy="600" fill="rgb(0,127,255)" rx="13.3333333333" ry="26.6666666667" /><text font-family="sans-serif" font-size="24" text-anchor="start" x="100" y="612.0">   15.648</text><ellipse cx="60" cy="680" fill="rgb(0,255,255)" rx="10.0" ry="30.0" /><text font-family="sans-serif" font-size="24" text-anchor="start" x="100" y="692.0">   14.807</text><ellipse cx="900.0" cy="685.316954889" fill="rgb(236,0,255)" rx="22.8552316495" ry="17.1447683505" /><rect fill="white" height="640" stroke="black" width="180" x="20" y="100" /><text font-family="sans-serif" font-size="24" text-anchor="middle" x="110.0" y="144">Temp. (C)</text><ellipse cx="60" cy="200" fill="rgb(255,0,0)" rx="30.0" ry="10.0" /><text font-family="sans-serif" font-size="24" text-anchor="start" x="100" y="212.0">   19.858</text><ellipse cx="60" cy="280" fill="rgb(255,0,127)" rx="26.6666666667" ry="13.3333333333" /><text font-family="sans-serif" font-size="24" text-anchor="start" x="100" y="292.0">   19.016</text><ellipse cx="60" cy="360" fill="rgb(255,0,255)" rx="23.3333333333" ry="16.6666666667" /><text font-family="sans-serif" font-size="24" text-anchor="start" x="100" y="372.0">   18.174</text><ellipse cx="60" cy="440" fill="rgb(127,0,255)" rx="20.0" ry="20.0" /><text font-family="sans-serif" font-size="24" text-anchor="start" x="100" y="452.0">   17.332</text><ellipse cx="60" cy="520" fill="rgb(0,0,255)" rx="16.6666666667" ry="23.3333333333" /><text font-family="sans-serif" font-size="24" text-anchor="start" x="100" y="532.0">   16.490</text><ellipse cx="60" cy="600" fill="rgb(0,127,255)" rx="13.3333333333" ry="26.6666666667" /><text font-family="sans-serif" font-size="24" text-anchor="start" x="100" y="612.0">   15.648</text><ellipse cx="60" cy="680" fill="rgb(0,255,255)" rx="10.0" ry="30.0" /><text font-family="sans-serif" font-size="24" text-anchor="start" x="100" y="692.0">   14.807</text><ellipse cx="933.333333333" cy="698.35656861" fill="rgb(218,0,255)" rx="22.3704343868" ry="17.6295656132" /><rect fill="white" height="640" stroke="black" width="180" x="20" y="100" /><text font-family="sans-serif" font-size="24" text-anchor="middle" x="110.0" y="144">Temp. (C)</text><ellipse cx="60" cy="200" fill="rgb(255,0,0)" rx="30.0" ry="10.0" /><text font-family="sans-serif" font-size="24" text-anchor="start" x="100" y="212.0">   19.858</text><ellipse cx="60" cy="280" fill="rgb(255,0,127)" rx="26.6666666667" ry="13.3333333333" /><text font-family="sans-serif" font-size="24" text-anchor="start" x="100" y="292.0">   19.016</text><ellipse cx="60" cy="360" fill="rgb(255,0,255)" rx="23.3333333333" ry="16.6666666667" /><text font-family="sans-serif" font-size="24" text-anchor="start" x="100" y="372.0">   18.174</text><ellipse cx="60" cy="440" fill="rgb(127,0,255)" rx="20.0" ry="20.0" /><text font-family="sans-serif" font-size="24" text-anchor="start" x="100" y="452.0">   17.332</text><ellipse cx="60" cy="520" fill="rgb(0,0,255)" rx="16.6666666667" ry="23.3333333333" /><text font-family="sans-serif" font-size="24" text-anchor="start" x="100" y="532.0">   16.490</text><ellipse cx="60" cy="600" fill="rgb(0,127,255)" rx="13.3333333333" ry="26.6666666667" /><text font-family="sans-serif" font-size="24" text-anchor="start" x="100" y="612.0">   15.648</text><ellipse cx="60" cy="680" fill="rgb(0,255,255)" rx="10.0" ry="30.0" /><text font-family="sans-serif" font-size="24" text-anchor="start" x="100" y="692.0">   14.807</text><ellipse cx="966.666666667" cy="659.807621135" fill="rgb(255,0,243)" rx="23.6377927583" ry="16.3622072417" /><rect fill="white" height="640" stroke="black" width="180" x="20" y="100" /><text font-family="sans-serif" font-size="24" text-anchor="middle" x="110.0" y="144">Temp. (C)</text><ellipse cx="60" cy="200" fill="rgb(255,0,0)" rx="30.0" ry="10.0" /><text font-family="sans-serif" font-size="24" text-anchor="start" x="100" y="212.0">   19.858</text><ellipse cx="60" cy="280" fill="rgb(255,0,127)" rx="26.6666666667" ry="13.3333333333" /><text font-family="sans-serif" font-size="24" text-anchor="start" x="100" y="292.0">   19.016</text><ellipse cx="60" cy="360" fill="rgb(255,0,255)" rx="23.3333333333" ry="16.6666666667" /><text font-family="sans-serif" font-size="24" text-anchor="start" x="100" y="372.0">   18.174</text><ellipse cx="60" cy="440" fill="rgb(127,0,255)" rx="20.0" ry="20.0" /><text font-family="sans-serif" font-size="24" text-anchor="start" x="100" y="452.0">   17.332</text><ellipse cx="60" cy="520" fill="rgb(0,0,255)" rx="16.6666666667" ry="23.3333333333" /><text font-family="sans-serif" font-size="24" text-anchor="start" x="100" y="532.0">   16.490</text><ellipse cx="60" cy="600" fill="rgb(0,127,255)" rx="13.3333333333" ry="26.6666666667" /><text font-family="sans-serif" font-size="24" text-anchor="start" x="100" y="612.0">   15.648</text><ellipse cx="60" cy="680" fill="rgb(0,255,255)" rx="10.0" ry="30.0" /><text font-family="sans-serif" font-size="24" text-anchor="start" x="100" y="692.0">   14.807</text><ellipse cx="1000.0" cy="576.335575688" fill="rgb(255,0,172)" rx="25.4821398728" ry="14.5178601272" /><rect fill="white" height="640" stroke="black" width="180" x="20" y="100" /><text font-family="sans-serif" font-size="24" text-anchor="middle" x="110.0" y="144">Temp. (C)</text><ellipse cx="60" cy="200" fill="rgb(255,0,0)" rx="30.0" ry="10.0" /><text font-family="sans-serif" font-size="24" text-anchor="start" x="100" y="212.0">   19.858</text><ellipse cx="60" cy="280" fill="rgb(255,0,127)" rx="26.6666666667" ry="13.3333333333" /><text font-family="sans-serif" font-size="24" text-anchor="start" x="100" y="292.0">   19.016</text><ellipse cx="60" cy="360" fill="rgb(255,0,255)" rx="23.3333333333" ry="16.6666666667" /><text font-family="sans-serif" font-size="24" text-anchor="start" x="100" y="372.0">   18.174</text><ellipse cx="60" cy="440" fill="rgb(127,0,255)" rx="20.0" ry="20.0" /><text font-family="sans-serif" font-size="24" text-anchor="start" x="100" y="452.0">   17.332</text><ellipse cx="60" cy="520" fill="rgb(0,0,255)" rx="16.6666666667" ry="23.3333333333" /><text font-family="sans-serif" font-size="24" text-anchor="start" x="100" y="532.0">   16.490</text><ellipse cx="60" cy="600" fill="rgb(0,127,255)" rx="13.3333333333" ry="26.6666666667" /><text font-family="sans-serif" font-size="24" text-anchor="start" x="100" y="612.0">   15.648</text><ellipse cx="60" cy="680" fill="rgb(0,255,255)" rx="10.0" ry="30.0" /><text font-family="sans-serif" font-size="24" text-anchor="start" x="100" y="692.0">   14.807</text><ellipse cx="1033.33333333" cy="462.373507245" fill="rgb(255,0,153)" rx="25.981683378" ry="14.018316622" /><rect fill="white" height="640" stroke="black" width="180" x="20" y="100" /><text font-family="sans-serif" font-size="24" text-anchor="middle" x="110.0" y="144">Temp. (C)</text><ellipse cx="60" cy="200" fill="rgb(255,0,0)" rx="30.0" ry="10.0" /><text font-family="sans-serif" font-size="24" text-anchor="start" x="100" y="212.0">   19.858</text><ellipse cx="60" cy="280" fill="rgb(255,0,127)" rx="26.6666666667" ry="13.3333333333" /><text font-family="sans-serif" font-size="24" text-anchor="start" x="100" y="292.0">   19.016</text><ellipse cx="60" cy="360" fill="rgb(255,0,255)" rx="23.3333333333" ry="16.6666666667" /><text font-family="sans-serif" font-size="24" text-anchor="start" x="100" y="372.0">   18.174</text><ellipse cx="60" cy="440" fill="rgb(127,0,255)" rx="20.0" ry="20.0" /><text font-family="sans-serif" font-size="24" text-anchor="start" x="100" y="452.0">   17.332</text><ellipse cx="60" cy="520" fill="rgb(0,0,255)" rx="16.6666666667" ry="23.3333333333" /><text font-family="sans-serif" font-size="24" text-anchor="start" x="100" y="532.0">   16.490</text><ellipse cx="60" cy="600" fill="rgb(0,127,255)" rx="13.3333333333" ry="26.6666666667" /><text font-family="sans-serif" font-size="24" text-anchor="start" x="100" y="612.0">   15.648</text><ellipse cx="60" cy="680" fill="rgb(0,255,255)" rx="10.0" ry="30.0" /><text font-family="sans-serif" font-size="24" text-anchor="start" x="100" y="692.0">   14.807</text><ellipse cx="1066.66666667" cy="337.626492755" fill="rgb(255,0,151)" rx="26.042872034" ry="13.957127966" /><rect fill="white" height="640" stroke="black" width="180" x="20" y="100" /><text font-family="sans-serif" font-size="24" text-anchor="middle" x="110.0" y="144">Temp. (C)</text><ellipse cx="60" cy="200" fill="rgb(255,0,0)" rx="30.0" ry="10.0" /><text font-family="sans-serif" font-size="24" text-anchor="start" x="100" y="212.0">   19.858</text><ellipse cx="60" cy="280" fill="rgb(255,0,127)" rx="26.6666666667" ry="13.3333333333" /><text font-family="sans-serif" font-size="24" text-anchor="start" x="100" y="292.0">   19.016</text><ellipse cx="60" cy="360" fill="rgb(255,0,255)" rx="23.3333333333" ry="16.6666666667" /><text font-family="sans-serif" font-size="24" text-anchor="start" x="100" y="372.0">   18.174</text><ellipse cx="60" cy="440" fill="rgb(127,0,255)" rx="20.0" ry="20.0" /><text font-family="sans-serif" font-size="24" text-anchor="start" x="100" y="452.0">   17.332</text><ellipse cx="60" cy="520" fill="rgb(0,0,255)" rx="16.6666666667" ry="23.3333333333" /><text font-family="sans-serif" font-size="24" text-anchor="start" x="100" y="532.0">   16.490</text><ellipse cx="60" cy="600" fill="rgb(0,127,255)" rx="13.3333333333" ry="26.6666666667" /><text font-family="sans-serif" font-size="24" text-anchor="start" x="100" y="612.0">   15.648</text><ellipse cx="60" cy="680" fill="rgb(0,255,255)" rx="10.0" ry="30.0" /><text font-family="sans-serif" font-size="24" text-anchor="start" x="100" y="692.0">   14.807</text><ellipse cx="1100.0" cy="223.664424312" fill="rgb(255,0,134)" rx="26.476694585" ry="13.523305415" /><rect fill="white" height="640" stroke="black" width="180" x="20" y="100" /><text font-family="sans-serif" font-size="24" text-anchor="middle" x="110.0" y="144">Temp. (C)</text><ellipse cx="60" cy="200" fill="rgb(255,0,0)" rx="30.0" ry="10.0" /><text font-family="sans-serif" font-size="24" text-anchor="start" x="100" y="212.0">   19.858</text><ellipse cx="60" cy="280" fill="rgb(255,0,127)" rx="26.6666666667" ry="13.3333333333" /><text font-family="sans-serif" font-size="24" text-anchor="start" x="100" y="292.0">   19.016</text><ellipse cx="60" cy="360" fill="rgb(255,0,255)" rx="23.3333333333" ry="16.6666666667" /><text font-family="sans-serif" font-size="24" text-anchor="start" x="100" y="372.0">   18.174</text><ellipse cx="60" cy="440" fill="rgb(127,0,255)" rx="20.0" ry="20.0" /><text font-family="sans-serif" font-size="24" text-anchor="start" x="100" y="452.0">   17.332</text><ellipse cx="60" cy="520" fill="rgb(0,0,255)" rx="16.6666666667" ry="23.3333333333" /><text font-family="sans-serif" font-size="24" text-anchor="start" x="100" y="532.0">   16.490</text><ellipse cx="60" cy="600" fill="rgb(0,127,255)" rx="13.3333333333" ry="26.6666666667" /><text font-family="sans-serif" font-size="24" text-anchor="start" x="100" y="612.0">   15.648</text><ellipse cx="60" cy="680" fill="rgb(0,255,255)" rx="10.0" ry="30.0" /><text font-family="sans-serif" font-size="24" text-anchor="start" x="100" y="692.0">   14.807</text><ellipse cx="1133.33333333" cy="140.192378865" fill="rgb(255,0,80)" rx="27.8970849978" ry="12.1029150022" /><rect fill="white" height="640" stroke="black" width="180" x="20" y="100" /><text font-family="sans-serif" font-size="24" text-anchor="middle" x="110.0" y="144">Temp. (C)</text><ellipse cx="60" cy="200" fill="rgb(255,0,0)" rx="30.0" ry="10.0" /><text font-family="sans-serif" font-size="24" text-anchor="start" x="100" y="212.0">   19.858</text><ellipse cx="60" cy="280" fill="rgb(255,0,127)" rx="26.6666666667" ry="13.3333333333" /><text font-family="sans-serif" font-size="24" text-anchor="start" x="100" y="292.0">   19.016</text><ellipse cx="60" cy="360" fill="rgb(255,0,255)" rx="23.3333333333" ry="16.6666666667" /><text font-family="sans-serif" font-size="24" text-anchor="start" x="100" y="372.0">   18.174</text><ellipse cx="60" cy="440" fill="rgb(127,0,255)" rx="20.0" ry="20.0" /><text font-family="sans-serif" font-size="24" text-anchor="start" x="100" y="452.0">   17.332</text><ellipse cx="60" cy="520" fill="rgb(0,0,255)" rx="16.6666666667" ry="23.3333333333" /><text font-family="sans-serif" font-size="24" text-anchor="start" x="100" y="532.0">   16.490</text><ellipse cx="60" cy="600" fill="rgb(0,127,255)" rx="13.3333333333" ry="26.6666666667" /><text font-family="sans-serif" font-size="24" text-anchor="start" x="100" y="612.0">   15.648</text><ellipse cx="60" cy="680" fill="rgb(0,255,255)" rx="10.0" ry="30.0" /><text font-family="sans-serif" font-size="24" text-anchor="start" x="100" y="692.0">   14.807</text><ellipse cx="1166.66666667" cy="101.64343139" fill="rgb(255,0,57)" rx="28.5062855052" ry="11.4937144948" /><rect fill="white" height="640" stroke="black" width="180" x="20" y="100" /><text font-family="sans-serif" font-size="24" text-anchor="middle" x="110.0" y="144">Temp. (C)</text><ellipse cx="60" cy="200" fill="rgb(255,0,0)" rx="30.0" ry="10.0" /><text font-family="sans-serif" font-size="24" text-anchor="start" x="100" y="212.0">   19.858</text><ellipse cx="60" cy="280" fill="rgb(255,0,127)" rx="26.6666666667" ry="13.3333333333" /><text font-family="sans-serif" font-size="24" text-anchor="start" x="100" y="292.0">   19.016</text><ellipse cx="60" cy="360" fill="rgb(255,0,255)" rx="23.3333333333" ry="16.6666666667" /><text font-family="sans-serif" font-size="24" text-anchor="start" x="100" y="372.0">   18.174</text><ellipse cx="60" cy="440" fill="rgb(127,0,255)" rx="20.0" ry="20.0" /><text font-family="sans-serif" font-size="24" text-anchor="start" x="100" y="452.0">   17.332</text><ellipse cx="60" cy="520" fill="rgb(0,0,255)" rx="16.6666666667" ry="23.3333333333" /><text font-family="sans-serif" font-size="24" text-anchor="start" x="100" y="532.0">   16.490</text><ellipse cx="60" cy="600" fill="rgb(0,127,255)" rx="13.3333333333" ry="26.6666666667" /><text font-family="sans-serif" font-size="24" text-anchor="start" x="100" y="612.0">   15.648</text><ellipse cx="60" cy="680" fill="rgb(0,255,255)" rx="10.0" ry="30.0" /><text font-family="sans-serif" font-size="24" text-anchor="start" x="100" y="692.0">   14.807</text><ellipse cx="1200.0" cy="114.683045111" fill="rgb(255,0,82)" rx="27.845084821" ry="12.154915179" /><rect fill="white" height="640" stroke="black" width="180" x="20" y="100" /><text font-family="sans-serif" font-size="24" text-anchor="middle" x="110.0" y="144">Temp. (C)</text><ellipse cx="60" cy="200" fill="rgb(255,0,0)" rx="30.0" ry="10.0" /><text font-family="sans-serif" font-size="24" text-anchor="start" x="100" y="212.0">   19.858</text><ellipse cx="60" cy="280" fill="rgb(255,0,127)" rx="26.6666666667" ry="13.3333333333" /><text font-family="sans-serif" font-size="24" text-anchor="start" x="100" y="292.0">   19.016</text><ellipse cx="60" cy="360" fill="rgb(255,0,255)" rx="23.3333333333" ry="16.6666666667" /><text font-family="sans-serif" font-size="24" text-anchor="start" x="100" y="372.0">   18.174</text><ellipse cx="60" cy="440" fill="rgb(127,0,255)" rx="20.0" ry="20.0" /><text font-family="sans-serif" font-size="24" text-anchor="start" x="100" y="452.0">   17.332</text><ellipse cx="60" cy="520" fill="rgb(0,0,255)" rx="16.6666666667" ry="23.3333333333" /><text font-family="sans-serif" font-size="24" text-anchor="start" x="100" y="532.0">   16.490</text><ellipse cx="60" cy="600" fill="rgb(0,127,255)" rx="13.3333333333" ry="26.6666666667" /><text font-family="sans-serif" font-size="24" text-anchor="start" x="100" y="612.0">   15.648</text><ellipse cx="60" cy="680" fill="rgb(0,255,255)" rx="10.0" ry="30.0" /><text font-family="sans-serif" font-size="24" text-anchor="start" x="100" y="692.0">   14.807</text><ellipse cx="1233.33333333" cy="177.056552357" fill="rgb(255,0,37)" rx="29.0114056428" ry="10.9885943572" /></svg>